<svg id="Layer_1" data-name="Layer 1" xmlns="http://www.w3.org/2000/svg" viewBox="0 0 92.69 183.65">
<style>
    path {
        fill: red;
    }
</style>
<path d="M145.71,173l-7.39-7.31-17.74-17.55L99.22,127,80.66,108.64l-6.09-6a23.44,23.44,0,0,0-2.92-2.89,1.36,1.36,0,0,1-.12-.12v1.59l7.38-7.38L96.63,76.09l21.43-21.44,18.53-18.52,6.07-6.07c1-1,2-1.9,2.93-2.93l.12-.12a1.12,1.12,0,0,0-1.59-1.59l-7.38,7.37L119,50.52,97.58,72,79.05,90.48,73,96.55c-1,1-2,1.89-2.93,2.93l-.12.12a1.13,1.13,0,0,0,0,1.59l7.38,7.31,17.74,17.55,21.37,21.14L135,165.54l6.1,6c1,1,1.89,2,2.92,2.89l.12.12a1.12,1.12,0,0,0,1.59-1.59Z" transform="translate(-53.66 -8.17)"/>
<path d="M146.24,191.18l-9.2-9.1-21.91-21.67L88.56,134.13l-23-22.72L58,103.91l-2.32-2.31c-.35-.34-.8-1-1.23-1.21-.06,0-.12-.12-.17-.16v.53l9.21-9.21L85.41,69.64,112,43.07l23-23,7.55-7.54A50.66,50.66,0,0,0,146.08,9a.81.81,0,0,1,.16-.16c.34-.35-.19-.88-.53-.54l-9.21,9.21L114.59,39.4,88,66l-23,23-7.55,7.55a46.77,46.77,0,0,0-3.59,3.59c0,.05-.1.1-.16.16a.39.39,0,0,0,0,.53l9.2,9.1,21.91,21.67,26.57,26.28,23,22.72L142,188a47.15,47.15,0,0,0,3.55,3.52c.06,0,.11.11.17.17.34.33.87-.2.53-.54Z" transform="translate(-53.66 -8.17)"/>
<path d="M118.93,131.52l-10.82-10.71L91,103.83l-4-3.92v.53L97.75,89.66,115,72.46l4-4a.38.38,0,0,0-.53-.53L107.62,78.73l-17.2,17.2-4,4a.39.39,0,0,0,0,.53l10.83,10.7,17.16,17,4,3.93a.38.38,0,0,0,.53-.53Z" transform="translate(-53.66 -8.17)"/>
</svg>