<svg id="Layer_1" data-name="Layer 1" xmlns="http://www.w3.org/2000/svg" viewBox="0 0 92.69 183.65"><style>
    path {
        fill: red;
    }
</style><path d="M55.88,174.58l7.39-7.31L81,149.72l21.36-21.13,18.56-18.36,6.09-6c1-1,2-1.86,2.92-2.88l.12-.13a1.13,1.13,0,0,0,0-1.59l-7.37-7.38L105,74.5,83.53,53.06,65,34.53l-6.07-6.06c-1-1-1.89-2-2.93-2.93l-.12-.12A1.12,1.12,0,0,0,54.29,27l7.38,7.38L79.39,52.11l21.44,21.43,18.52,18.53,6.07,6.07a23.85,23.85,0,0,0,2.93,2.93.68.68,0,0,1,.12.12V99.6l-7.39,7.31-17.74,17.55L82,145.6,63.43,164l-6.1,6c-1,1-2,1.87-2.92,2.89l-.12.12a1.12,1.12,0,0,0,1.59,1.59Z" transform="translate(-53.65 -8.17)"/><path d="M54.29,191.72l9.21-9.11,21.9-21.67L112,134.66l23-22.72,7.59-7.5a47.17,47.17,0,0,0,3.55-3.52,1.29,1.29,0,0,1,.17-.16.39.39,0,0,0,0-.53L137,91,115.12,69.11,88.55,42.54l-23-23L58,12a46.51,46.51,0,0,0-3.58-3.58c-.06,0-.11-.11-.17-.17-.34-.34-.87.19-.53.54L63,18,84.88,39.93,111.45,66.5l23,23L142,97l2.35,2.35c.33.34.8,1,1.23,1.24.06,0,.12.11.17.16v-.53l-9.21,9.1L114.6,131,88,157.28,65.07,180l-7.59,7.5A47.17,47.17,0,0,0,53.93,191a1.29,1.29,0,0,1-.17.16c-.34.34.19.88.53.54Z" transform="translate(-53.65 -8.17)"/><path d="M81.6,132.05l10.82-10.71,17.16-17,4-3.93a.39.39,0,0,0,0-.53L102.78,89.13l-17.2-17.2-4-4a.38.38,0,0,0-.53.53L91.85,79.26l17.2,17.2,4,4v-.53l-10.83,10.7L85,127.59l-4,3.93a.38.38,0,0,0,.53.53Z" transform="translate(-53.65 -8.17)"/></svg>